<svg id="42744731-fcf7-4460-bd4a-ffea542c4adb" data-name="レイヤー 1" xmlns="http://www.w3.org/2000/svg" viewBox="0 0 420.14 158.09"><defs><style>.\34 c03781e-c44d-4d95-8f6c-724b8a52b1bb{fill:#008cd6;}</style></defs><title>企業情報</title><path class="4c03781e-c44d-4d95-8f6c-724b8a52b1bb" d="M538,304.53c0,16.32,10.94,29.53,24.4,29.53h67.7c1.68,0,3,1.63,3,3.65s-1.37,3.67-3,3.67H538v25.87H641.19c13.47,0,24.4-13.21,24.4-29.53s-10.93-29.51-24.4-29.51h-67.7c-1.68,0-3-1.65-3-3.66s1.37-3.65,3-3.65h92.1V275H562.42C549,275,538,288.22,538,304.53Z" transform="translate(-538.02 -275)"/><polygon class="4c03781e-c44d-4d95-8f6c-724b8a52b1bb" points="230.06 0 230.06 57.8 168.39 0 134.87 0 134.87 92.24 167.25 92.24 167.25 34.45 228.91 92.24 262.43 92.24 262.43 0 230.06 0"/><polygon class="4c03781e-c44d-4d95-8f6c-724b8a52b1bb" points="397.29 0 354.87 0 302.11 40.67 302.11 0 269.73 0 269.73 92.24 302.11 92.24 302.11 51.56 354.87 92.24 397.29 92.24 337.48 46.12 397.29 0"/><path class="4c03781e-c44d-4d95-8f6c-724b8a52b1bb" d="M954.81,278.34a11.41,11.41,0,0,0-16.12,0,10.94,10.94,0,0,0-3.35,8,11.16,11.16,0,0,0,3.31,8.12A11.43,11.43,0,0,0,954.81,278.34Zm-1.14,15a9.28,9.28,0,0,1-6.93,2.93,9.44,9.44,0,0,1-7-2.93,9.92,9.92,0,0,1,0-13.92,9.44,9.44,0,0,1,6.95-2.9,9.34,9.34,0,0,1,6.93,2.9A9.83,9.83,0,0,1,953.68,293.38Z" transform="translate(-538.02 -275)"/><path class="4c03781e-c44d-4d95-8f6c-724b8a52b1bb" d="M952.08,284.78v-0.59a3.38,3.38,0,0,0-3.45-3.35H942v11.54h2v-4.25h4a1.71,1.71,0,0,1,1.66,1.37h0l0.38,2.86h2l-0.39-2.86a3.8,3.8,0,0,0-1-2A3.35,3.35,0,0,0,952.08,284.78Zm-8.06-2h4.62a1.45,1.45,0,0,1,1.45,1.45v0.59a1.5,1.5,0,0,1-1.53,1.47H944v-3.51Z" transform="translate(-538.02 -275)"/><path class="4c03781e-c44d-4d95-8f6c-724b8a52b1bb" d="M538,400.84v-1.78h25.63v1.78H551.84v31.69h-2.06V400.84H538Z" transform="translate(-538.02 -275)"/><path class="4c03781e-c44d-4d95-8f6c-724b8a52b1bb" d="M570,399.05v14.53h0.1a7.76,7.76,0,0,1,1.34-2.41,8.56,8.56,0,0,1,2-1.8,8.88,8.88,0,0,1,2.51-1.13,10.3,10.3,0,0,1,2.76-.37,11,11,0,0,1,3.58.51,7.13,7.13,0,0,1,2.42,1.36,6.52,6.52,0,0,1,1.47,1.89,8.92,8.92,0,0,1,.78,2.14,13.44,13.44,0,0,1,.27,2.09c0,0.67.06,1.25,0.06,1.76v14.91H585.5V417.29c0-.59,0-1.34-0.14-2.25a6.91,6.91,0,0,0-.83-2.6,5.94,5.94,0,0,0-2.06-2.13,7.06,7.06,0,0,0-3.82-.89,8.49,8.49,0,0,0-3.65.75,7.94,7.94,0,0,0-2.71,2.09,9.16,9.16,0,0,0-1.72,3.19,13.35,13.35,0,0,0-.59,4.05v13H568.2V399.05H570Z" transform="translate(-538.02 -275)"/><path class="4c03781e-c44d-4d95-8f6c-724b8a52b1bb" d="M595.75,420.71V421a14.62,14.62,0,0,0,.56,4A10.27,10.27,0,0,0,598,428.4a7.89,7.89,0,0,0,2.77,2.3,8.44,8.44,0,0,0,3.87.85,8.29,8.29,0,0,0,5.74-1.9,9.91,9.91,0,0,0,2.91-5.27h1.79a10.84,10.84,0,0,1-3.45,6.47A11.92,11.92,0,0,1,600,432.12a9.53,9.53,0,0,1-3.33-2.62,11.36,11.36,0,0,1-2-3.94,18,18,0,0,1-.65-4.9,17.32,17.32,0,0,1,.68-4.85,12.21,12.21,0,0,1,2-4.07,10.12,10.12,0,0,1,3.4-2.81,11.34,11.34,0,0,1,9.28-.12,9.43,9.43,0,0,1,3.27,2.55,11.53,11.53,0,0,1,2,3.75,15.14,15.14,0,0,1,.68,4.57c0,0.15,0,.33,0,0.53s0,0.37,0,.5h-19.5Zm17.72-1.55a14.1,14.1,0,0,0-.67-3.72,9,9,0,0,0-1.66-3.09,8.35,8.35,0,0,0-2.68-2.13,7.86,7.86,0,0,0-3.6-.8,8.43,8.43,0,0,0-3.8.82,8.6,8.6,0,0,0-2.77,2.15,9.54,9.54,0,0,0-1.74,3.13,14.72,14.72,0,0,0-.76,3.65h17.68Z" transform="translate(-538.02 -275)"/><path class="4c03781e-c44d-4d95-8f6c-724b8a52b1bb" d="M637.93,399.05h21v1.78H640v13.41h17.06V416H640v16.5h-2.06V399.05Z" transform="translate(-538.02 -275)"/><path class="4c03781e-c44d-4d95-8f6c-724b8a52b1bb" d="M683.35,432.52h-1.78v-5.16h-0.09a7.85,7.85,0,0,1-1.33,2.41,8.77,8.77,0,0,1-4.53,2.93,10.58,10.58,0,0,1-2.77.37,11,11,0,0,1-3.58-.52,7.07,7.07,0,0,1-2.41-1.36,6.78,6.78,0,0,1-1.49-1.9,9.16,9.16,0,0,1-.77-2.13,12.09,12.09,0,0,1-.28-2.09q0-1,0-1.76V408.43h1.78v15.24c0,0.63,0,1.38.13,2.28a6.85,6.85,0,0,0,.82,2.57,6,6,0,0,0,2,2.13,6.9,6.9,0,0,0,3.85.9,8.53,8.53,0,0,0,3.63-.75,7.9,7.9,0,0,0,2.74-2.09,9.16,9.16,0,0,0,1.71-3.18,13.58,13.58,0,0,0,.58-4.05v-13h1.78v24.1Z" transform="translate(-538.02 -275)"/><path class="4c03781e-c44d-4d95-8f6c-724b8a52b1bb" d="M700,410h-5.25V426.8a6.59,6.59,0,0,0,.33,2.3,2.63,2.63,0,0,0,1,1.29,3.6,3.6,0,0,0,1.63.54,17.72,17.72,0,0,0,2.24,0v1.55a17,17,0,0,1-2.65,0,5.17,5.17,0,0,1-2.27-.71A4.08,4.08,0,0,1,693.5,430a6.74,6.74,0,0,1-.5-3.23V410h-4.44v-1.55H693v-7.49h1.79v7.49H700V410Z" transform="translate(-538.02 -275)"/><path class="4c03781e-c44d-4d95-8f6c-724b8a52b1bb" d="M725,432.52h-1.78v-5.16H723.1a7.77,7.77,0,0,1-1.34,2.41,9,9,0,0,1-2,1.81,9.15,9.15,0,0,1-2.51,1.12,10.59,10.59,0,0,1-2.77.37,11.12,11.12,0,0,1-3.59-.52,7.14,7.14,0,0,1-2.41-1.36,6.54,6.54,0,0,1-1.48-1.9,8.92,8.92,0,0,1-.78-2.13,12.28,12.28,0,0,1-.28-2.09c0-.67-0.05-1.25-0.05-1.76V408.43h1.78v15.24c0,0.63,0,1.38.14,2.28a6.86,6.86,0,0,0,.82,2.57,6,6,0,0,0,2,2.13,6.93,6.93,0,0,0,3.84.9,8.54,8.54,0,0,0,3.63-.75,8,8,0,0,0,2.75-2.09,9.25,9.25,0,0,0,1.71-3.18,13.45,13.45,0,0,0,.59-4.05v-13H725v24.1Z" transform="translate(-538.02 -275)"/><path class="4c03781e-c44d-4d95-8f6c-724b8a52b1bb" d="M734.58,413.77h0.13a5.9,5.9,0,0,1,1.2-2.2,8.5,8.5,0,0,1,2.11-1.78,10.43,10.43,0,0,1,2.77-1.15,11.26,11.26,0,0,1,3.16-.35v1.78a8.53,8.53,0,0,0-3.22.28,7.88,7.88,0,0,0-3.44,2.06,15.82,15.82,0,0,0-1.14,1.36,6.26,6.26,0,0,0-.82,1.45,9.4,9.4,0,0,0-.52,1.78,14.21,14.21,0,0,0-.23,2.34v13.17H732.8v-24.1h1.79v5.35Z" transform="translate(-538.02 -275)"/><path class="4c03781e-c44d-4d95-8f6c-724b8a52b1bb" d="M749.06,420.71V421a14.54,14.54,0,0,0,.56,4,10.34,10.34,0,0,0,1.67,3.37,8,8,0,0,0,2.77,2.3,8.48,8.48,0,0,0,3.88.85,8.28,8.28,0,0,0,5.74-1.9,10,10,0,0,0,2.91-5.27h1.78a10.74,10.74,0,0,1-3.44,6.47,10.43,10.43,0,0,1-7,2.25,10.6,10.6,0,0,1-4.67-1,9.51,9.51,0,0,1-3.33-2.62,11.22,11.22,0,0,1-2-3.94,17.72,17.72,0,0,1-.66-4.9,17.32,17.32,0,0,1,.68-4.85,12.22,12.22,0,0,1,2-4.07,10,10,0,0,1,3.4-2.81,11.35,11.35,0,0,1,9.28-.12,9.57,9.57,0,0,1,3.26,2.55,11.53,11.53,0,0,1,2,3.75,15,15,0,0,1,.68,4.57c0,0.15,0,.33,0,0.53s0,0.37,0,.5h-19.5Zm17.72-1.55a14.93,14.93,0,0,0-.66-3.72,9.21,9.21,0,0,0-1.67-3.09,8.29,8.29,0,0,0-2.68-2.13,7.82,7.82,0,0,0-3.59-.8,8.42,8.42,0,0,0-3.8.82,8.67,8.67,0,0,0-2.77,2.15,9.77,9.77,0,0,0-1.74,3.13,14.44,14.44,0,0,0-.75,3.65h17.67Z" transform="translate(-538.02 -275)"/><path class="4c03781e-c44d-4d95-8f6c-724b8a52b1bb" d="M791.25,399.05h2.06v33.47h-2.06V399.05Z" transform="translate(-538.02 -275)"/><path class="4c03781e-c44d-4d95-8f6c-724b8a52b1bb" d="M802.3,424.51a7.48,7.48,0,0,0,.76,3,7.26,7.26,0,0,0,1.71,2.2,7.18,7.18,0,0,0,2.45,1.38,9.72,9.72,0,0,0,3.05.47,15.5,15.5,0,0,0,2.51-.22,8.44,8.44,0,0,0,2.48-.77,5.09,5.09,0,0,0,1.9-1.57,4.14,4.14,0,0,0,.75-2.56,3.77,3.77,0,0,0-1.21-3,8.5,8.5,0,0,0-3.07-1.59,30.22,30.22,0,0,0-4-.91,21.69,21.69,0,0,1-4-1.06,8.22,8.22,0,0,1-3.07-2,6.26,6.26,0,0,1-.42-6.75,6,6,0,0,1,2-1.9,9.17,9.17,0,0,1,2.79-1,15.88,15.88,0,0,1,3.09-.31,14.06,14.06,0,0,1,3.53.42,7.66,7.66,0,0,1,2.83,1.35A6.44,6.44,0,0,1,818.3,412a8.2,8.2,0,0,1,.69,3.52h-1.78a6.74,6.74,0,0,0-.54-2.81,4.9,4.9,0,0,0-1.49-1.9,6.55,6.55,0,0,0-2.28-1.08,10.52,10.52,0,0,0-2.81-.36,13.63,13.63,0,0,0-2.46.24,7.05,7.05,0,0,0-2.22.8,4.89,4.89,0,0,0-1.62,1.46,3.6,3.6,0,0,0-.64,2.15,3.67,3.67,0,0,0,.71,2.34,4.93,4.93,0,0,0,1.85,1.43,12.9,12.9,0,0,0,2.57.87l2.88,0.66q1.78,0.33,3.35.78a9.5,9.5,0,0,1,2.72,1.21,5.65,5.65,0,0,1,1.81,2,6.6,6.6,0,0,1,.65,3.09,5.51,5.51,0,0,1-.88,3.24,6.83,6.83,0,0,1-2.25,2,9.5,9.5,0,0,1-3,1.08,18.21,18.21,0,0,1-3.26.31,13,13,0,0,1-3.81-.54,8.43,8.43,0,0,1-3.07-1.64,7.75,7.75,0,0,1-2.07-2.69,9.14,9.14,0,0,1-.79-3.7h1.78Z" transform="translate(-538.02 -275)"/><path class="4c03781e-c44d-4d95-8f6c-724b8a52b1bb" d="M842.51,399.05h2.58l21.13,30.7h0.09v-30.7h2.07v33.47H866l-21.28-30.94h-0.09v30.94h-2.06V399.05Z" transform="translate(-538.02 -275)"/><path class="4c03781e-c44d-4d95-8f6c-724b8a52b1bb" d="M875.41,420.47a15.94,15.94,0,0,1,.72-4.84,12.23,12.23,0,0,1,2.14-4,10,10,0,0,1,3.46-2.74,11.64,11.64,0,0,1,9.47,0,10.09,10.09,0,0,1,3.47,2.74,12.15,12.15,0,0,1,2.13,4,15.94,15.94,0,0,1,.72,4.84,16.21,16.21,0,0,1-.72,4.88,11.82,11.82,0,0,1-2.13,4,10.24,10.24,0,0,1-3.47,2.72,11.63,11.63,0,0,1-9.47,0,10.15,10.15,0,0,1-3.46-2.72,11.9,11.9,0,0,1-2.14-4A16.21,16.21,0,0,1,875.41,420.47Zm1.79,0a14.45,14.45,0,0,0,.6,4.15,11.27,11.27,0,0,0,1.79,3.54,8.75,8.75,0,0,0,2.9,2.46,9.13,9.13,0,0,0,8,0,8.74,8.74,0,0,0,2.91-2.46,11.31,11.31,0,0,0,1.78-3.54,14.6,14.6,0,0,0,0-8.29,11.21,11.21,0,0,0-1.78-3.54,8.67,8.67,0,0,0-2.91-2.46,9.11,9.11,0,0,0-8,0,8.68,8.68,0,0,0-2.9,2.46,11.17,11.17,0,0,0-1.79,3.54A14.41,14.41,0,0,0,877.2,420.47Z" transform="translate(-538.02 -275)"/><path class="4c03781e-c44d-4d95-8f6c-724b8a52b1bb" d="M910.29,430.46h0.09l6.57-22h2.39l6.6,22H926l6.76-22h2L927,432.52h-2.2l-6.61-21.84h-0.1l-6.65,21.84h-2.25l-7.65-24.1h1.93Z" transform="translate(-538.02 -275)"/></svg>